<svg xmlns="http://www.w3.org/2000/svg" xmlns:xlink="http://www.w3.org/1999/xlink" width="400" height="400" viewBox="0 0 400 400"><defs><linearGradient id="gradient-19"><stop stop-color="#905e25" offset="0"/><stop stop-color="#f5ec8b" offset="0.5"/><stop stop-color="#905e36" offset="1"/></linearGradient></defs>
<rect data-name="background" width="100%" height="100%" fill="#22242d"/><g data-name="watermark" class="watermark-logodesign" stroke="#ffffff" transform="translate(10, 320) scale(1.5) rotate(-45)" style="opacity:0.040000010281801224;"><path fill="#000000" d="M22.92,19.2q3.04,1.68,4.8,4.7t1.76,6.78t-1.76,6.78t-4.8,4.7t-6.68,1.68t-6.7-1.68t-4.84-4.7t-1.78-6.78t1.78-6.78t4.84-4.7t6.7-1.68t6.68,1.68z M11.14,21.74q-2.26,1.3-3.54,3.62t-1.28,5.32t1.28,5.32t3.54,3.6t5.1,1.28t5.08-1.28t3.52-3.6t1.28-5.32t-1.28-5.32t-3.54-3.62t-5.06-1.3q-2.84,0-5.1,1.3z M21.4,24.76l-1.8,2.32q-0.72-0.56-1.4-0.78t-1.48-0.22q-1.44,0-2.3,1.1t-0.86,3.46q0,2.32,0.82,3.44t2.26,1.12q0.96,0,1.74-0.3t1.54-0.9l1.64,2.44q-2.24,2.04-5.2,2.04q-3.2,0-5.08-2.04t-1.88-5.8q0-2.4,0.9-4.16t2.48-2.7t3.54-0.94q2.92,0,5.08,1.92z M41.2,20.32l0,22.96l10.96,0l-0.64,4.72l-16.2,0l0-27.68l5.88,0z M71.92,29.14q2.68,2.98,2.68,8.26q0,3.36-1.22,5.9t-3.52,3.94t-5.42,1.4q-4.76,0-7.46-2.98t-2.7-8.26q0-3.36,1.22-5.9t3.52-3.94t5.46-1.4q4.76,0,7.44,2.98z M61.26,32.1q-1.06,1.7-1.06,5.3t1.06,5.3t3.18,1.7t3.18-1.7t1.06-5.3t-1.04-5.3t-3.16-1.7q-2.16,0-3.22,1.7z M97.88,27.96q-2.08,0.8-6.12,0.8q2,0.88,2.96,2.18t0.96,3.26q0,2.04-1.06,3.66t-3.04,2.54t-4.62,0.92q-1.4,0-2.48-0.28q-0.8,0.52-0.8,1.4q0,0.64,0.5,1.02t1.94,0.38l3.24,0q2.36,0,4.14,0.78t2.76,2.16t0.98,3.14q0,3.24-2.78,5.06t-8.02,1.82q-3.76,0-5.94-0.78t-3.06-2.26t-0.88-3.72l5.08,0q0,1.04,0.4,1.66t1.46,0.92t3.06,0.3q2.76,0,3.86-0.68t1.1-1.92q0-1.12-0.84-1.72t-2.48-0.6l-3.12,0q-3.16,0-4.72-1.18t-1.56-2.98q0-1.12,0.66-2.18t1.82-1.78q-1.96-1.08-2.86-2.54t-0.9-3.5q0-2.32,1.14-4.06t3.2-2.68t4.7-0.94q3.28,0.08,5.4-0.56t4.52-2z M84.14,30.98q-0.94,1.02-0.94,2.78q0,1.8,0.94,2.84t2.58,1.04q1.72,0,2.6-1t0.88-2.96q0-3.72-3.52-3.72q-1.6,0-2.54,1.02z M117.04,29.14q2.68,2.98,2.68,8.26q0,3.36-1.22,5.9t-3.52,3.94t-5.42,1.4q-4.76,0-7.46-2.98t-2.7-8.26q0-3.36,1.22-5.9t3.52-3.94t5.46-1.4q4.76,0,7.44,2.98z M106.38,32.1q-1.06,1.7-1.06,5.3t1.06,5.3t3.18,1.7t3.18-1.7t1.06-5.3t-1.04-5.3t-3.16-1.7q-2.16,0-3.22,1.7z M141.78,23.26q3.9,2.94,3.9,10.78q0,7.68-3.82,10.82t-9.78,3.14l-7.92,0l0-27.68l7.24,0q6.48,0,10.38,2.94z M130.04,24.64l0,19.04l2.4,0q3.4,0,5.26-2.1t1.86-7.54q0-3.76-0.94-5.84t-2.5-2.82t-3.8-0.74l-2.28,0z M167.84,39.12l-13.24,0q0.28,2.88,1.56,4.08t3.48,1.2q1.36,0,2.56-0.44t2.6-1.4l2.36,3.2q-3.56,2.88-8.04,2.88q-5,0-7.68-3t-2.68-8.12q0-3.24,1.14-5.82t3.32-4.06t5.18-1.48q4.52,0,7.04,2.84t2.52,7.92q0,0.4-0.12,2.2z M162.32,35.32q0-5.28-3.8-5.28q-1.76,0-2.74,1.3t-1.18,4.22l7.72,0l0-0.24z M186.8,28.72l-2.16,3.24q-2.68-1.68-5.28-1.68q-1.4,0-2.16,0.52t-0.76,1.4q0,0.64,0.34,1.08t1.28,0.84t2.82,0.96q3.36,0.92,5,2.46t1.64,4.22q0,2.12-1.22,3.68t-3.3,2.38t-4.64,0.82q-2.68,0-4.88-0.82t-3.76-2.26l2.8-3.12q2.68,2.08,5.68,2.08q1.6,0,2.54-0.62t0.94-1.7q0-0.84-0.36-1.32t-1.32-0.9t-3-0.98q-3.2-0.88-4.74-2.5t-1.54-4.02q0-1.8,1.04-3.24t2.94-2.26t4.42-0.82q4.48,0,7.68,2.56z M196.92,26.8l0,21.2l-5.68,0l0-21.2l5.68,0z M196.54,16.82q0.98,0.94,0.98,2.38t-0.98,2.38t-2.5,0.94t-2.48-0.94t-0.96-2.38t0.96-2.38t2.48-0.94t2.5,0.94z M221.48,27.96q-2.08,0.8-6.12,0.8q2,0.88,2.96,2.18t0.96,3.26q0,2.04-1.06,3.66t-3.04,2.54t-4.62,0.92q-1.4,0-2.48-0.28q-0.8,0.52-0.8,1.4q0,0.64,0.5,1.02t1.94,0.38l3.24,0q2.36,0,4.14,0.78t2.76,2.16t0.98,3.14q0,3.24-2.78,5.06t-8.02,1.82q-3.76,0-5.94-0.78t-3.06-2.26t-0.88-3.72l5.08,0q0,1.04,0.4,1.66t1.46,0.92t3.06,0.3q2.76,0,3.86-0.68t1.1-1.92q0-1.12-0.84-1.72t-2.48-0.6l-3.12,0q-3.16,0-4.72-1.18t-1.56-2.98q0-1.12,0.66-2.18t1.82-1.78q-1.96-1.08-2.86-2.54t-0.9-3.5q0-2.32,1.14-4.06t3.2-2.68t4.7-0.94q3.28,0.08,5.4-0.56t4.52-2z M207.74,30.98q-0.94,1.02-0.94,2.78q0,1.8,0.94,2.84t2.58,1.04q1.72,0,2.6-1t0.88-2.96q0-3.72-3.52-3.72q-1.6,0-2.54,1.02z M240.48,27.86q1.56,1.7,1.56,4.7l0,15.44l-5.68,0l0-14.48q0-1.72-0.58-2.42t-1.74-0.7q-1.2,0-2.18,0.74t-1.9,2.22l0,14.64l-5.68,0l0-21.2l4.92,0l0.44,2.68q1.32-1.64,2.9-2.48t3.58-0.84q2.8,0,4.36,1.7z M251.84,42.8q1,1,1,2.4t-1,2.42t-2.44,1.02q-1.4,0-2.4-1.02t-1-2.42t1-2.4t2.4-1q1.44,0,2.44,1z M271.8,48l-1.56-6.2l-8.68,0l-1.56,6.2l-6.12,0l8.52-27.68l7.16,0l8.48,27.68l-6.24,0z M262.68,37.44l6.44,0l-3.24-12.76z M286.48,20.32l0,27.68l-5.88,0l0-27.68l5.88,0z"/></g><g data-name="icon" fill="url(#gradient-19)" data="id:7183825" transform="translate(130.2489170092522,99.8505934372379) scale(1.3866783097317985)">
  
 <path d="m14.699 97.398h71.199c5.3984 0 10-3.8008 11.301-8.8008l-93.801 0.003906c1.3008 5 5.9023 8.7969 11.301 8.7969z"/>
 <path d="m39.898 7.8984h20.699c4.3984 0 8 3.6016 8.1016 7.8984h5.1992c-0.10156-7.1016-6-12.898-13.102-12.898h-20.797c-7.1016 0-13 5.8008-13.102 12.898h4.8008c0.19922-4.3984 3.9023-7.8984 8.1992-7.8984z"/>
 <path d="m87.199 18.801h-73.801c-5.7969 0.59766-10.297 5.5-10.297 11.5v55.301h94.398v-55.301c0.10156-6-4.3984-10.902-10.301-11.5zm-17.699 41.5-5.1016 7.8984c-0.19922 0.30078-0.60156 0.39844-1 0.19922l-7.8984-5.1016v9.3984c0 0.39844-0.30078 0.69922-0.69922 0.69922h-9.5c-0.39844 0-0.69922-0.30078-0.69922-0.69922v-9.3984l-7.8984 5.1016c-0.19922 0.10156-0.30078 0.19922-0.60156 0.10156-0.19922 0-0.30078-0.19922-0.5-0.30078l-5.1016-7.8984c-0.19922-0.30078-0.19922-0.80078 0.19922-1l9.3008-6-9.3008-5.8984c-0.30078-0.19922-0.39844-0.60156-0.19922-1l5.1016-7.8984c0.10156-0.19922 0.19922-0.19922 0.5-0.30078 0.19922 0 0.39844 0 0.60156 0.10156l7.8984 5.1016v-9.5c0-0.39844 0.30078-0.69922 0.69922-0.69922h9.3984c0.39844 0 0.69922 0.30078 0.69922 0.69922v9.3984l7.8984-5.1016c0.30078-0.19922 0.80078-0.19922 1 0.19922l5.1016 7.8984c0.10156 0.19922 0.19922 0.30078 0.10156 0.60156 0 0.19922-0.19922 0.30078-0.30078 0.5l-9.1992 5.8984 9.3008 5.8984c0.19922 0.10156 0.19922 0.19922 0.30078 0.5 0.097657 0.30078 0 0.5-0.10156 0.60156z"/>

  </g><g data-name="business_name" fill="#ffffff" data="id:350" transform="translate(63.8578924259056,246.51780461031834) scale(0.4237628979143798)"><path d="M26.71875,23.125l0,1.3671875q-1.69921875,0.1171875-2.32421875,0.537109375t-0.625,1.455078125l0,18.125q0,1.03515625,0.625,1.455078125t2.32421875,0.537109375l0,1.3671875q-5.76171875-0.1953125-11.5625,0l0-1.3671875q1.69921875-0.1171875,2.333984375-0.537109375t0.634765625-1.455078125l0-8.28125l-8.515625,0l0,8.28125q0,1.03515625,0.625,1.455078125t2.32421875,0.537109375l0,1.3671875q-5.76171875-0.1953125-11.5625,0l0-1.3671875q1.69921875-0.1171875,2.333984375-0.537109375t0.634765625-1.455078125l0-18.125q0-1.03515625-0.634765625-1.455078125t-2.333984375-0.537109375l0-1.3671875q5.80078125,0.1953125,11.5625,0l0,1.3671875q-1.69921875,0.1171875-2.32421875,0.537109375t-0.625,1.455078125l0,8.2421875l8.515625,0l0-8.2421875q0-1.03515625-0.634765625-1.455078125t-2.333984375-0.537109375l0-1.3671875q5.80078125,0.1953125,11.5625,0z M44.78515625,43.88671875l1.5234375,0q-2.01171875,4.4921875-7.36328125,4.53125q-4.23828125,0-7.1484375-2.79296875q-2.890625-2.8125-2.890625-7.65625q0-4.8828125,2.83203125-7.63671875q2.8515625-2.75390625,6.73828125-2.75390625q3.57421875,0,5.95703125,2.32421875q2.36328125,2.3046875,2.36328125,5.703125q0,1.50390625-0.52734375,2.158203125t-1.796875,0.654296875l-9.921875,0q0,3.6328125,1.34765625,6.03515625q1.38671875,2.40234375,4.21875,2.40234375q3.22265625,0,4.66796875-2.96875z M34.55078125,36.97265625l7.24609375,0q0-3.96484375-0.80078125-5.927734375t-2.55859375-1.962890625q-1.8359375,0-2.861328125,2.080078125t-1.025390625,5.810546875z M66.30859375,33.53515625l0,9.9609375q0,2.48046875,2.51953125,2.67578125l0,1.40625q-3.2421875,0.09765625-6.7578125,0.91796875q-0.72265625-0.25390625-0.99609375-1.015625l0.1953125-2.63671875l-0.3125,0q-0.5859375,1.015625-1.89453125,2.1484375q-1.73828125,1.50390625-4.35546875,1.50390625q-2.3828125,0-4.04296875-1.2890625q-1.6796875-1.328125-1.6796875-3.92578125q0-2.7734375,2.59765625-4.4921875q2.6171875-1.73828125,9.3359375-3.22265625l0-2.109375q0-2.578125-0.546875-3.53515625q-0.546875-0.99609375-2.0703125-0.99609375q-1.25,0-1.97265625,0.60546875t-0.91796875,1.58203125q-0.0390625,0.15625-0.126953125,0.654296875t-0.126953125,0.703125t-0.15625,0.64453125t-0.234375,0.64453125t-0.33203125,0.517578125t-0.46875,0.44921875t-0.615234375,0.25390625t-0.810546875,0.1171875q-1.19140625,0-1.77734375-0.52734375t-0.56640625-1.6015625q0-2.265625,2.734375-3.828125t6.93359375-1.5625q3.1640625,0,4.8046875,1.2890625q1.640625,1.25,1.640625,4.66796875z M56.9921875,46.1328125q1.3671875,0,2.40234375-1.09375q1.015625-1.11328125,1.5234375-2.265625l0-5.99609375q-4.21875,1.07421875-5.48828125,3.046875q-0.99609375,1.5625-0.99609375,3.02734375q0,1.484375,0.703125,2.3828125t1.85546875,0.8984375z M78.2421875,26.5234375l0,18.61328125q0,1.19140625,2.51953125,1.46484375l0,1.3671875q-5.15625-0.21484375-10.3515625,0l0-1.3671875q2.44140625-0.2734375,2.44140625-1.46484375l0-19.7265625q0-1.1328125-0.595703125-1.54296875t-1.806640625-0.21484375l0-1.3671875q4.12109375-0.7421875,6.9921875-2.48046875q0.7421875,0.33203125,1.0546875,1.03515625q-0.21484375,1.5625-0.25390625,5.68359375z M94.35546875,45.17578125l0,1.5625q-1.5234375,1.5234375-4.35546875,1.50390625q-2.6171875,0-4.04296875-1.50390625t-1.42578125-4.4921875l0-12.71484375l-2.16796875,0l0-1.6015625q2.65625,0,3.92578125-1.25q1.2890625-1.23046875,1.9140625-4.19921875l1.71875,0l0,5.44921875l4.43359375,0l0,1.6015625l-4.43359375,0l0,13.4765625q0,3.2421875,1.953125,3.2421875q1.2109375,0,2.48046875-1.07421875z M116.875,34.53125l0,10.60546875q0,1.19140625,2.51953125,1.46484375l0,1.3671875q-5.1953125-0.15625-10.44921875,0l0-1.3671875q2.51953125-0.1953125,2.51953125-1.46484375l0-10.60546875q0-4.51171875-2.94921875-4.53125q-1.6796875,0-2.8515625,1.26953125q-1.171875,1.2890625-1.484375,2.578125l0,11.2890625q0,1.19140625,2.51953125,1.46484375l0,1.3671875q-5.15625-0.21484375-10.3515625,0l0-1.3671875q2.44140625-0.2734375,2.44140625-1.46484375l0-19.7265625q0-1.1328125-0.595703125-1.54296875t-1.806640625-0.21484375l0-1.3671875q4.12109375-0.7421875,6.9921875-2.48046875q0.7421875,0.33203125,1.0546875,1.03515625q-0.21484375,1.5625-0.25390625,5.68359375l0,3.125l-0.390625,2.48046875q0.5078125-0.95703125,1.23046875-1.875q0.80078125-0.95703125,2.421875-1.8359375q1.66015625-0.9375,3.59375-0.9375q2.5,0,4.16015625,1.6015625q1.6796875,1.62109375,1.6796875,5.44921875z  M145.09765625,42.48046875q0,2.578125-2.08984375,4.31640625q-2.0703125,1.69921875-4.7265625,1.69921875q-1.484375,0-3.30078125-0.7421875t-2.08984375-0.7421875q-0.72265625,0-0.80078125,0.95703125l-1.5625,0l-0.46875-5.60546875l1.26953125,0q0.625,2.01171875,2.6171875,3.3203125q2.03125,1.328125,3.828125,1.328125q1.23046875,0,1.9921875-0.72265625t0.76171875-1.9140625q0-1.38671875-0.9765625-2.24609375q-0.9375-0.83984375-3.18359375-1.875q-1.484375-0.703125-2.20703125-1.11328125q-0.7421875-0.41015625-1.93359375-1.328125q-2.265625-1.7578125-2.265625-4.53125q0-2.5390625,1.81640625-4.08203125q1.8359375-1.58203125,4.62890625-1.58203125q1.40625,0,2.87109375,0.56640625q1.40625,0.546875,1.77734375,0.546875q0.8203125,0,1.03515625-0.80078125l1.40625,0l0.3515625,5.48828125l-1.19140625,0q-0.95703125-2.24609375-2.48046875-3.30078125q-1.50390625-1.07421875-3.046875-1.07421875q-1.26953125,0-2.03125,0.712890625t-0.76171875,1.884765625q0,1.19140625,0.83984375,2.021484375t2.71484375,1.708984375q0.09765625,0.078125,0.9765625,0.46875q1.0546875,0.46875,1.19140625,0.546875q0.3515625,0.17578125,1.171875,0.64453125q0.72265625,0.390625,1.19140625,0.78125l0.99609375,0.87890625q0.64453125,0.5859375,0.8984375,1.09375q0.78125,1.3671875,0.78125,2.6953125z M158.8671875,45.17578125l0,1.5625q-1.5234375,1.5234375-4.35546875,1.50390625q-2.6171875,0-4.04296875-1.50390625t-1.42578125-4.4921875l0-12.71484375l-2.16796875,0l0-1.6015625q2.65625,0,3.92578125-1.25q1.2890625-1.23046875,1.9140625-4.19921875l1.71875,0l0,5.44921875l4.43359375,0l0,1.6015625l-4.43359375,0l0,13.4765625q0,3.2421875,1.953125,3.2421875q1.2109375,0,2.48046875-1.07421875z M174.4140625,27.48046875q1.6015625,0,2.587890625,0.80078125t0.986328125,2.12890625q0,1.07421875-0.64453125,1.69921875t-1.6015625,0.625q-0.87890625,0-1.97265625-0.859375t-1.9140625-0.859375q-0.95703125,0-1.69921875,0.80078125q-1.11328125,1.2109375-1.46484375,2.91015625l0,10.41015625q0,1.19140625,2.6953125,1.46484375l0,1.3671875q-5.2734375-0.21484375-10.52734375,0l0-1.3671875q2.44140625-0.2734375,2.44140625-1.46484375l0-12.01171875q0-2.20703125-2.44140625-1.796875l0-1.3671875q3.88671875-0.78125,6.7578125-2.48046875q0.703125,0.3125,1.03515625,1.0546875l-0.83984375,4.51171875l0.29296875,0q2.1875-5.56640625,6.30859375-5.56640625z M195.4296875,43.88671875l1.5234375,0q-2.01171875,4.4921875-7.36328125,4.53125q-4.23828125,0-7.1484375-2.79296875q-2.890625-2.8125-2.890625-7.65625q0-4.8828125,2.83203125-7.63671875q2.8515625-2.75390625,6.73828125-2.75390625q3.57421875,0,5.95703125,2.32421875q2.36328125,2.3046875,2.36328125,5.703125q0,1.50390625-0.52734375,2.158203125t-1.796875,0.654296875l-9.921875,0q0,3.6328125,1.34765625,6.03515625q1.38671875,2.40234375,4.21875,2.40234375q3.22265625,0,4.66796875-2.96875z M185.1953125,36.97265625l7.24609375,0q0-3.96484375-0.80078125-5.927734375t-2.55859375-1.962890625q-1.8359375,0-2.861328125,2.080078125t-1.025390625,5.810546875z M216.953125,33.53515625l0,9.9609375q0,2.48046875,2.51953125,2.67578125l0,1.40625q-3.2421875,0.09765625-6.7578125,0.91796875q-0.72265625-0.25390625-0.99609375-1.015625l0.1953125-2.63671875l-0.3125,0q-0.5859375,1.015625-1.89453125,2.1484375q-1.73828125,1.50390625-4.35546875,1.50390625q-2.3828125,0-4.04296875-1.2890625q-1.6796875-1.328125-1.6796875-3.92578125q0-2.7734375,2.59765625-4.4921875q2.6171875-1.73828125,9.3359375-3.22265625l0-2.109375q0-2.578125-0.546875-3.53515625q-0.546875-0.99609375-2.0703125-0.99609375q-1.25,0-1.97265625,0.60546875t-0.91796875,1.58203125q-0.0390625,0.15625-0.126953125,0.654296875t-0.126953125,0.703125t-0.15625,0.64453125t-0.234375,0.64453125t-0.33203125,0.517578125t-0.46875,0.44921875t-0.615234375,0.25390625t-0.810546875,0.1171875q-1.19140625,0-1.77734375-0.52734375t-0.56640625-1.6015625q0-2.265625,2.734375-3.828125t6.93359375-1.5625q3.1640625,0,4.8046875,1.2890625q1.640625,1.25,1.640625,4.66796875z M207.63671875,46.1328125q1.3671875,0,2.40234375-1.09375q1.015625-1.11328125,1.5234375-2.265625l0-5.99609375q-4.21875,1.07421875-5.48828125,3.046875q-0.99609375,1.5625-0.99609375,3.02734375q0,1.484375,0.703125,2.3828125t1.85546875,0.8984375z M253.046875,34.53125l0,10.60546875q0,1.19140625,2.51953125,1.46484375l0,1.3671875q-5.1953125-0.15625-10.4296875,0l0-1.3671875q2.51953125-0.1953125,2.51953125-1.46484375l0-10.60546875q0-4.4921875-2.63671875-4.53125q-1.640625,0-2.6953125,1.2109375q-1.0546875,1.25-1.42578125,2.55859375l0,0.76171875l0,10.60546875q0,1.19140625,2.51953125,1.46484375l0,1.3671875q-5.1953125-0.15625-10.44921875,0l0-1.3671875q2.51953125-0.1953125,2.51953125-1.46484375l0-10.60546875q0-4.4921875-2.63671875-4.53125q-1.640625,0-2.6953125,1.25q-1.03515625,1.2109375-1.42578125,2.59765625l0,11.2890625q0,1.2890625,2.51953125,1.46484375l0,1.3671875q-5.1953125-0.15625-10.390625,0l0-1.3671875q2.48046875-0.25390625,2.48046875-1.46484375l0-12.01171875q0-2.20703125-2.44140625-1.796875l0-1.3671875q3.92578125-0.78125,6.7578125-2.48046875q0.703125,0.3125,1.03515625,1.0546875l-0.60546875,3.59375l0.25390625,0q0.4296875-0.8984375,1.15234375-1.85546875q0.7421875-0.95703125,2.34375-1.85546875q1.62109375-0.9375,3.53515625-0.9375q4.2578125,0,5.234375,4.3359375q0.87890625-1.66015625,2.59765625-2.98828125q1.73828125-1.34765625,4.3359375-1.34765625q5.52734375,0,5.5078125,7.05078125z  M297.75390625,34.53125l0,10.60546875q0,1.19140625,2.51953125,1.46484375l0,1.3671875q-5.1953125-0.15625-10.4296875,0l0-1.3671875q2.51953125-0.1953125,2.51953125-1.46484375l0-10.60546875q0-4.4921875-2.63671875-4.53125q-1.640625,0-2.6953125,1.2109375q-1.0546875,1.25-1.42578125,2.55859375l0,0.76171875l0,10.60546875q0,1.19140625,2.51953125,1.46484375l0,1.3671875q-5.1953125-0.15625-10.44921875,0l0-1.3671875q2.51953125-0.1953125,2.51953125-1.46484375l0-10.60546875q0-4.4921875-2.63671875-4.53125q-1.640625,0-2.6953125,1.25q-1.03515625,1.2109375-1.42578125,2.59765625l0,11.2890625q0,1.2890625,2.51953125,1.46484375l0,1.3671875q-5.1953125-0.15625-10.390625,0l0-1.3671875q2.48046875-0.25390625,2.48046875-1.46484375l0-12.01171875q0-2.20703125-2.44140625-1.796875l0-1.3671875q3.92578125-0.78125,6.7578125-2.48046875q0.703125,0.3125,1.03515625,1.0546875l-0.60546875,3.59375l0.25390625,0q0.4296875-0.8984375,1.15234375-1.85546875q0.7421875-0.95703125,2.34375-1.85546875q1.62109375-0.9375,3.53515625-0.9375q4.2578125,0,5.234375,4.3359375q0.87890625-1.66015625,2.59765625-2.98828125q1.73828125-1.34765625,4.3359375-1.34765625q5.52734375,0,5.5078125,7.05078125z M319.19921875,33.53515625l0,9.9609375q0,2.48046875,2.51953125,2.67578125l0,1.40625q-3.2421875,0.09765625-6.7578125,0.91796875q-0.72265625-0.25390625-0.99609375-1.015625l0.1953125-2.63671875l-0.3125,0q-0.5859375,1.015625-1.89453125,2.1484375q-1.73828125,1.50390625-4.35546875,1.50390625q-2.3828125,0-4.04296875-1.2890625q-1.6796875-1.328125-1.6796875-3.92578125q0-2.7734375,2.59765625-4.4921875q2.6171875-1.73828125,9.3359375-3.22265625l0-2.109375q0-2.578125-0.546875-3.53515625q-0.546875-0.99609375-2.0703125-0.99609375q-1.25,0-1.97265625,0.60546875t-0.91796875,1.58203125q-0.0390625,0.15625-0.126953125,0.654296875t-0.126953125,0.703125t-0.15625,0.64453125t-0.234375,0.64453125t-0.33203125,0.517578125t-0.46875,0.44921875t-0.615234375,0.25390625t-0.810546875,0.1171875q-1.19140625,0-1.77734375-0.52734375t-0.56640625-1.6015625q0-2.265625,2.734375-3.828125t6.93359375-1.5625q3.1640625,0,4.8046875,1.2890625q1.640625,1.25,1.640625,4.66796875z M309.8828125,46.1328125q1.3671875,0,2.40234375-1.09375q1.015625-1.11328125,1.5234375-2.265625l0-5.99609375q-4.21875,1.07421875-5.48828125,3.046875q-0.99609375,1.5625-0.99609375,3.02734375q0,1.484375,0.703125,2.3828125t1.85546875,0.8984375z M343.65234375,34.53125l0,10.60546875q0,1.19140625,2.51953125,1.46484375l0,1.3671875q-5.1953125-0.15625-10.4296875,0l0-1.3671875q2.51953125-0.1953125,2.51953125-1.46484375l0-10.60546875q0-4.4921875-2.96875-4.53125q-1.6796875,0-2.83203125,1.26953125q-1.171875,1.2890625-1.484375,2.578125l0,11.2890625q0,1.2890625,2.51953125,1.46484375l0,1.3671875q-5.1953125-0.15625-10.390625,0l0-1.3671875q2.48046875-0.25390625,2.48046875-1.46484375l0-12.01171875q0-2.20703125-2.44140625-1.796875l0-1.3671875q3.92578125-0.78125,6.7578125-2.48046875q0.703125,0.3125,1.03515625,1.0546875l-0.60546875,3.59375l0.25390625,0q0.5078125-0.95703125,1.23046875-1.875q0.80078125-0.95703125,2.421875-1.8359375q1.66015625-0.9375,3.57421875-0.9375q2.5,0,4.16015625,1.6015625q1.6796875,1.62109375,1.6796875,5.44921875z M365.09765625,33.53515625l0,9.9609375q0,2.48046875,2.51953125,2.67578125l0,1.40625q-3.2421875,0.09765625-6.7578125,0.91796875q-0.72265625-0.25390625-0.99609375-1.015625l0.1953125-2.63671875l-0.3125,0q-0.5859375,1.015625-1.89453125,2.1484375q-1.73828125,1.50390625-4.35546875,1.50390625q-2.3828125,0-4.04296875-1.2890625q-1.6796875-1.328125-1.6796875-3.92578125q0-2.7734375,2.59765625-4.4921875q2.6171875-1.73828125,9.3359375-3.22265625l0-2.109375q0-2.578125-0.546875-3.53515625q-0.546875-0.99609375-2.0703125-0.99609375q-1.25,0-1.97265625,0.60546875t-0.91796875,1.58203125q-0.0390625,0.15625-0.126953125,0.654296875t-0.126953125,0.703125t-0.15625,0.64453125t-0.234375,0.64453125t-0.33203125,0.517578125t-0.46875,0.44921875t-0.615234375,0.25390625t-0.810546875,0.1171875q-1.19140625,0-1.77734375-0.52734375t-0.56640625-1.6015625q0-2.265625,2.734375-3.828125t6.93359375-1.5625q3.1640625,0,4.8046875,1.2890625q1.640625,1.25,1.640625,4.66796875z M355.78125,46.1328125q1.3671875,0,2.40234375-1.09375q1.015625-1.11328125,1.5234375-2.265625l0-5.99609375q-4.21875,1.07421875-5.48828125,3.046875q-0.99609375,1.5625-0.99609375,3.02734375q0,1.484375,0.703125,2.3828125t1.85546875,0.8984375z M387.91015625,27.65625q2.12890625,0,2.12890625,2.0703125q0,1.9140625-1.4453125,1.9140625q-0.21484375,0-0.810546875-0.15625t-0.751953125-0.15625q-0.80078125,0-0.546875,0.83984375q0.44921875,1.46484375,0.4296875,2.71484375q0,3.1640625-2.34375,5.078125q-2.3046875,1.89453125-5.9765625,1.89453125q-1.2890625,0-2.67578125-0.29296875q-1.328125-0.3125-1.6015625-0.3125q-1.19140625,0-1.19140625,0.95703125q0,0.64453125,0.6640625,1.005859375t2.36328125,0.634765625l4.6484375,0.72265625q4.16015625,0.64453125,6.09375,1.73828125q1.89453125,1.07421875,1.89453125,3.33984375q0,3.18359375-3.125,5.078125q-3.125,1.9140625-7.71484375,1.9140625q-3.88671875,0-6.328125-1.40625q-2.421875-1.3671875-2.421875-3.9453125q0-1.40625,0.791015625-2.28515625t2.080078125-0.87890625q1.03515625,0,1.66015625,0.537109375t0.625,1.513671875q0,0.41015625-0.17578125,1.07421875q-0.17578125,0.68359375-0.17578125,1.19140625q0,1.19140625,1.171875,2.01171875q1.19140625,0.83984375,3.30078125,0.83984375q2.5,0,4.16015625-1.11328125q1.6796875-1.09375,1.6796875-3.046875q0-1.11328125-0.68359375-1.73828125t-2.265625-0.8984375l-7.01171875-1.25q-4.8828125-0.83984375-4.8828125-3.75q0-1.38671875,1.07421875-2.255859375t2.9296875-0.908203125q-1.54296875-0.72265625-2.470703125-2.216796875t-0.927734375-3.388671875q0-3.046875,2.32421875-5.09765625t6.03515625-2.05078125q2.1875,0,3.61328125,0.68359375q1.40625,0.6640625,2.71484375,1.875q0.78125-2.48046875,3.14453125-2.48046875z M376.03515625,38.75q0.76171875,1.62109375,2.44140625,1.62109375t2.44140625-1.62109375q0.76171875-1.6015625,0.76171875-4.0234375q0-2.40234375-0.76171875-4.04296875t-2.44140625-1.640625t-2.44140625,1.640625t-0.76171875,4.04296875q0,2.421875,0.76171875,4.0234375z M407.890625,43.88671875l1.5234375,0q-2.01171875,4.4921875-7.36328125,4.53125q-4.23828125,0-7.1484375-2.79296875q-2.890625-2.8125-2.890625-7.65625q0-4.8828125,2.83203125-7.63671875q2.8515625-2.75390625,6.73828125-2.75390625q3.57421875,0,5.95703125,2.32421875q2.36328125,2.3046875,2.36328125,5.703125q0,1.50390625-0.52734375,2.158203125t-1.796875,0.654296875l-9.921875,0q0,3.6328125,1.34765625,6.03515625q1.38671875,2.40234375,4.21875,2.40234375q3.22265625,0,4.66796875-2.96875z M397.65625,36.97265625l7.24609375,0q0-3.96484375-0.80078125-5.927734375t-2.55859375-1.962890625q-1.8359375,0-2.861328125,2.080078125t-1.025390625,5.810546875z M443.88671875,34.53125l0,10.60546875q0,1.19140625,2.51953125,1.46484375l0,1.3671875q-5.1953125-0.15625-10.4296875,0l0-1.3671875q2.51953125-0.1953125,2.51953125-1.46484375l0-10.60546875q0-4.4921875-2.63671875-4.53125q-1.640625,0-2.6953125,1.2109375q-1.0546875,1.25-1.42578125,2.55859375l0,0.76171875l0,10.60546875q0,1.19140625,2.51953125,1.46484375l0,1.3671875q-5.1953125-0.15625-10.44921875,0l0-1.3671875q2.51953125-0.1953125,2.51953125-1.46484375l0-10.60546875q0-4.4921875-2.63671875-4.53125q-1.640625,0-2.6953125,1.25q-1.03515625,1.2109375-1.42578125,2.59765625l0,11.2890625q0,1.2890625,2.51953125,1.46484375l0,1.3671875q-5.1953125-0.15625-10.390625,0l0-1.3671875q2.48046875-0.25390625,2.48046875-1.46484375l0-12.01171875q0-2.20703125-2.44140625-1.796875l0-1.3671875q3.92578125-0.78125,6.7578125-2.48046875q0.703125,0.3125,1.03515625,1.0546875l-0.60546875,3.59375l0.25390625,0q0.4296875-0.8984375,1.15234375-1.85546875q0.7421875-0.95703125,2.34375-1.85546875q1.62109375-0.9375,3.53515625-0.9375q4.2578125,0,5.234375,4.3359375q0.87890625-1.66015625,2.59765625-2.98828125q1.73828125-1.34765625,4.3359375-1.34765625q5.52734375,0,5.5078125,7.05078125z M464.08203125,43.88671875l1.5234375,0q-2.01171875,4.4921875-7.36328125,4.53125q-4.23828125,0-7.1484375-2.79296875q-2.890625-2.8125-2.890625-7.65625q0-4.8828125,2.83203125-7.63671875q2.8515625-2.75390625,6.73828125-2.75390625q3.57421875,0,5.95703125,2.32421875q2.36328125,2.3046875,2.36328125,5.703125q0,1.50390625-0.52734375,2.158203125t-1.796875,0.654296875l-9.921875,0q0,3.6328125,1.34765625,6.03515625q1.38671875,2.40234375,4.21875,2.40234375q3.22265625,0,4.66796875-2.96875z M453.84765625,36.97265625l7.24609375,0q0-3.96484375-0.80078125-5.927734375t-2.55859375-1.962890625q-1.8359375,0-2.861328125,2.080078125t-1.025390625,5.810546875z M488.4375,34.53125l0,10.60546875q0,1.19140625,2.51953125,1.46484375l0,1.3671875q-5.1953125-0.15625-10.4296875,0l0-1.3671875q2.51953125-0.1953125,2.51953125-1.46484375l0-10.60546875q0-4.4921875-2.96875-4.53125q-1.6796875,0-2.83203125,1.26953125q-1.171875,1.2890625-1.484375,2.578125l0,11.2890625q0,1.2890625,2.51953125,1.46484375l0,1.3671875q-5.1953125-0.15625-10.390625,0l0-1.3671875q2.48046875-0.25390625,2.48046875-1.46484375l0-12.01171875q0-2.20703125-2.44140625-1.796875l0-1.3671875q3.92578125-0.78125,6.7578125-2.48046875q0.703125,0.3125,1.03515625,1.0546875l-0.60546875,3.59375l0.25390625,0q0.5078125-0.95703125,1.23046875-1.875q0.80078125-0.95703125,2.421875-1.8359375q1.66015625-0.9375,3.57421875-0.9375q2.5,0,4.16015625,1.6015625q1.6796875,1.62109375,1.6796875,5.44921875z M504.35546875,45.17578125l0,1.5625q-1.5234375,1.5234375-4.35546875,1.50390625q-2.6171875,0-4.04296875-1.50390625t-1.42578125-4.4921875l0-12.71484375l-2.16796875,0l0-1.6015625q2.65625,0,3.92578125-1.25q1.2890625-1.23046875,1.9140625-4.19921875l1.71875,0l0,5.44921875l4.43359375,0l0,1.6015625l-4.43359375,0l0,13.4765625q0,3.2421875,1.953125,3.2421875q1.2109375,0,2.48046875-1.07421875z  M530.6640625,42.48046875q0,2.578125-2.08984375,4.31640625q-2.0703125,1.69921875-4.7265625,1.69921875q-1.484375,0-3.30078125-0.7421875t-2.08984375-0.7421875q-0.72265625,0-0.80078125,0.95703125l-1.5625,0l-0.46875-5.60546875l1.26953125,0q0.625,2.01171875,2.6171875,3.3203125q2.03125,1.328125,3.828125,1.328125q1.23046875,0,1.9921875-0.72265625t0.76171875-1.9140625q0-1.38671875-0.9765625-2.24609375q-0.9375-0.83984375-3.18359375-1.875q-1.484375-0.703125-2.20703125-1.11328125q-0.7421875-0.41015625-1.93359375-1.328125q-2.265625-1.7578125-2.265625-4.53125q0-2.5390625,1.81640625-4.08203125q1.8359375-1.58203125,4.62890625-1.58203125q1.40625,0,2.87109375,0.56640625q1.40625,0.546875,1.77734375,0.546875q0.8203125,0,1.03515625-0.80078125l1.40625,0l0.3515625,5.48828125l-1.19140625,0q-0.95703125-2.24609375-2.48046875-3.30078125q-1.50390625-1.07421875-3.046875-1.07421875q-1.26953125,0-2.03125,0.712890625t-0.76171875,1.884765625q0,1.19140625,0.83984375,2.021484375t2.71484375,1.708984375q0.09765625,0.078125,0.9765625,0.46875q1.0546875,0.46875,1.19140625,0.546875q0.3515625,0.17578125,1.171875,0.64453125q0.72265625,0.390625,1.19140625,0.78125l0.99609375,0.87890625q0.64453125,0.5859375,0.8984375,1.09375q0.78125,1.3671875,0.78125,2.6953125z M546.328125,29.3359375l0-1.40625l7.75390625,0l0,1.40625l-1.2109375,0.078125q-1.4453125,0.09765625-2.265625,2.36328125l-9.609375,24.78515625l-2.0703125,0l3.5546875-8.4765625l-7.03125-16.40625q-0.95703125-2.24609375-1.97265625-2.265625l-1.23046875-0.078125l0-1.40625l10.2734375,0l0,1.40625l-1.19140625,0.078125q-0.703125,0.0390625-0.908203125,0.615234375t0.185546875,1.708984375l4.19921875,10.46875l4.12109375-10.4296875q0.390625-1.03515625,0.009765625-1.66015625t-1.298828125-0.703125z M570.99609375,42.48046875q0,2.578125-2.08984375,4.31640625q-2.0703125,1.69921875-4.7265625,1.69921875q-1.484375,0-3.30078125-0.7421875t-2.08984375-0.7421875q-0.72265625,0-0.80078125,0.95703125l-1.5625,0l-0.46875-5.60546875l1.26953125,0q0.625,2.01171875,2.6171875,3.3203125q2.03125,1.328125,3.828125,1.328125q1.23046875,0,1.9921875-0.72265625t0.76171875-1.9140625q0-1.38671875-0.9765625-2.24609375q-0.9375-0.83984375-3.18359375-1.875q-1.484375-0.703125-2.20703125-1.11328125q-0.7421875-0.41015625-1.93359375-1.328125q-2.265625-1.7578125-2.265625-4.53125q0-2.5390625,1.81640625-4.08203125q1.8359375-1.58203125,4.62890625-1.58203125q1.40625,0,2.87109375,0.56640625q1.40625,0.546875,1.77734375,0.546875q0.8203125,0,1.03515625-0.80078125l1.40625,0l0.3515625,5.48828125l-1.19140625,0q-0.95703125-2.24609375-2.48046875-3.30078125q-1.50390625-1.07421875-3.046875-1.07421875q-1.26953125,0-2.03125,0.712890625t-0.76171875,1.884765625q0,1.19140625,0.83984375,2.021484375t2.71484375,1.708984375q0.09765625,0.078125,0.9765625,0.46875q1.0546875,0.46875,1.19140625,0.546875q0.3515625,0.17578125,1.171875,0.64453125q0.72265625,0.390625,1.19140625,0.78125l0.99609375,0.87890625q0.64453125,0.5859375,0.8984375,1.09375q0.78125,1.3671875,0.78125,2.6953125z M584.765625,45.17578125l0,1.5625q-1.5234375,1.5234375-4.35546875,1.50390625q-2.6171875,0-4.04296875-1.50390625t-1.42578125-4.4921875l0-12.71484375l-2.16796875,0l0-1.6015625q2.65625,0,3.92578125-1.25q1.2890625-1.23046875,1.9140625-4.19921875l1.71875,0l0,5.44921875l4.43359375,0l0,1.6015625l-4.43359375,0l0,13.4765625q0,3.2421875,1.953125,3.2421875q1.2109375,0,2.48046875-1.07421875z M603.02734375,43.88671875l1.5234375,0q-2.01171875,4.4921875-7.36328125,4.53125q-4.23828125,0-7.1484375-2.79296875q-2.890625-2.8125-2.890625-7.65625q0-4.8828125,2.83203125-7.63671875q2.8515625-2.75390625,6.73828125-2.75390625q3.57421875,0,5.95703125,2.32421875q2.36328125,2.3046875,2.36328125,5.703125q0,1.50390625-0.52734375,2.158203125t-1.796875,0.654296875l-9.921875,0q0,3.6328125,1.34765625,6.03515625q1.38671875,2.40234375,4.21875,2.40234375q3.22265625,0,4.66796875-2.96875z M592.79296875,36.97265625l7.24609375,0q0-3.96484375-0.80078125-5.927734375t-2.55859375-1.962890625q-1.8359375,0-2.861328125,2.080078125t-1.025390625,5.810546875z M639.0234375,34.53125l0,10.60546875q0,1.19140625,2.51953125,1.46484375l0,1.3671875q-5.1953125-0.15625-10.4296875,0l0-1.3671875q2.51953125-0.1953125,2.51953125-1.46484375l0-10.60546875q0-4.4921875-2.63671875-4.53125q-1.640625,0-2.6953125,1.2109375q-1.0546875,1.25-1.42578125,2.55859375l0,0.76171875l0,10.60546875q0,1.19140625,2.51953125,1.46484375l0,1.3671875q-5.1953125-0.15625-10.44921875,0l0-1.3671875q2.51953125-0.1953125,2.51953125-1.46484375l0-10.60546875q0-4.4921875-2.63671875-4.53125q-1.640625,0-2.6953125,1.25q-1.03515625,1.2109375-1.42578125,2.59765625l0,11.2890625q0,1.2890625,2.51953125,1.46484375l0,1.3671875q-5.1953125-0.15625-10.390625,0l0-1.3671875q2.48046875-0.25390625,2.48046875-1.46484375l0-12.01171875q0-2.20703125-2.44140625-1.796875l0-1.3671875q3.92578125-0.78125,6.7578125-2.48046875q0.703125,0.3125,1.03515625,1.0546875l-0.60546875,3.59375l0.25390625,0q0.4296875-0.8984375,1.15234375-1.85546875q0.7421875-0.95703125,2.34375-1.85546875q1.62109375-0.9375,3.53515625-0.9375q4.2578125,0,5.234375,4.3359375q0.87890625-1.66015625,2.59765625-2.98828125q1.73828125-1.34765625,4.3359375-1.34765625q5.52734375,0,5.5078125,7.05078125z"/></g><g data-name="slogan" fill="#ffffff" data="id:356" transform="translate(168.37153975786586,272.7642372012285) scale(0.40905923909685904)"><path d="M16.64,18.96c3.92,0,8.12,0.84,11.12,3.56l-3.72,3.76c-1.92-1.84-4.76-2.76-7.4-2.76c-5.8,0-9.72,4.48-9.72,10.12c0,5.84,3.68,10.52,9.76,10.52c2.12,0,4.6-0.36,6.6-1.48l0-6.68l-5.8,0l0-4.56l10.84,0l0,14.48c-3.76,2-7.72,2.8-11.68,2.8c-8.8,0-15-6-15-14.76c0-8.92,6.08-15,15-15z M33.84,48l0-19.2l4.8,0l0,3.04l0.08,0c1.04-2.2,3.16-3.52,5.68-3.52c0.72,0,1.08,0.12,1.72,0.28l0,4.64c-0.92-0.24-1.6-0.36-2.32-0.36c-3.64,0-5.16,2.56-5.16,5.12l0,10l-4.8,0z M58.88,28.32c5.88,0,10.44,4.08,10.44,10.08s-4.56,10.08-10.44,10.08s-10.44-4.08-10.44-10.08c0-5.96,4.6-10.08,10.44-10.08z M53.24,38.4c0,3.32,2.4,5.76,5.64,5.76c3.36,0,5.64-2.56,5.64-5.76c0-3.32-2.4-5.76-5.68-5.76c-3.2,0-5.6,2.48-5.6,5.76z M73.8,28.8l4.8,0l0,9.92c0,3.84,1.2,5.44,3.52,5.44c2.84,0,4.4-1.92,4.4-4.88l0-10.48l4.8,0l0,19.2l-4.56,0l0-3.08l-0.08,0c-1.12,2.4-3.16,3.56-5.88,3.56c-5.6,0-7-4.24-7-7.4l0-12.28z M108.04,28.32c5.8,0,9.44,4.36,9.44,10.08c0,5.44-3.6,10.08-9.28,10.08c-2.56,0-4.92-0.88-6.52-2.92l-0.12,0l0,11.56l-4.8,0l0-28.32l4.56,0l0,2.88l0.08,0c1.52-2.44,4.04-3.36,6.64-3.36z M101.4,38.4c0,3.44,2.52,5.76,5.64,5.76c3.24,0,5.64-2.44,5.64-5.76c0-2.76-1.92-5.76-5.68-5.76c-3.2,0-5.6,2.48-5.6,5.76z  M148.56,19.68l-6.8,10.48l0.08,0.08c0.56-0.32,1.68-0.48,2.64-0.48c4.8,0,8.52,3.88,8.52,9.04c0,6-4.32,9.68-10.08,9.68c-6.04,0-10.08-3.72-10.08-9.64c0-3.32,1.32-5.72,3.16-8.6l6.72-10.56l5.84,0z M137.88,38.76c0,2.88,2.36,5.16,5.16,5.16c2.84,0,5.16-2.32,5.16-5.16c0-2.88-2.36-5.16-5.2-5.16c-2.76,0-5.12,2.28-5.12,5.16z"/></g></svg>